{
  "accessors": [
    {
      "bufferView": 2,
      "componentType": 5126,
      "count": 320,
      "max": [
        0.016983000561594963,
        6.935421943664551,
        0.2430569976568222
      ],
      "min": [
        -0.02319899946451187,
        6.877901077270508,
        0.20901699364185333
      ],
      "type": "VEC3"
    },
    {
      "bufferView": 2,
      "byteOffset": 3840,
      "componentType": 5126,
      "count": 320,
      "max": [
        0.9999996423721313,
        0.96915602684021,
        0.9911967515945435
      ],
      "min": [
        -0.999974250793457,
        -0.9969662427902222,
        -0.9679012298583984
      ],
      "type": "VEC3"
    },
    {
      "bufferView": 3,
      "componentType": 5126,
      "count": 320,
      "max": [
        0.9999999403953552,
        0.4550323486328125,
        0.9940803647041321,
        1.0
      ],
      "min": [
        -1.0,
        -0.43912890553474426,
        -0.9957113265991211,
        1.0
      ],
      "type": "VEC4"
    },
    {
      "bufferView": 1,
      "componentType": 5126,
      "count": 320,
      "max": [
        0.6325420141220093,
        0.9845960140228271
      ],
      "min": [
        0.3232100009918213,
        0.5062959790229797
      ],
      "type": "VEC2"
    },
    {
      "bufferView": 0,
      "componentType": 5125,
      "count": 564,
      "type": "SCALAR"
    },
    {
      "bufferView": 2,
      "byteOffset": 7680,
      "componentType": 5126,
      "count": 576,
      "max": [
        0.015536000020802021,
        6.913600921630859,
        0.23223300278186798
      ],
      "min": [
        -0.018168000504374504,
        6.83127498626709,
        0.20456700026988983
      ],
      "type": "VEC3"
    },
    {
      "bufferView": 2,
      "byteOffset": 14592,
      "componentType": 5126,
      "count": 576,
      "max": [
        0.9998021125793457,
        0.9995825290679932,
        0.9736646413803101
      ],
      "min": [
        -0.9999942183494568,
        -0.998329758644104,
        -0.9687726497650146
      ],
      "type": "VEC3"
    },
    {
      "bufferView": 3,
      "byteOffset": 5120,
      "componentType": 5126,
      "count": 576,
      "max": [
        1.0,
        0.8295734524726868,
        0.9999933838844299,
        1.0
      ],
      "min": [
        -0.9999891519546509,
        -0.8616418242454529,
        -0.9999919533729553,
        -1.0
      ],
      "type": "VEC4"
    },
    {
      "bufferView": 1,
      "byteOffset": 2560,
      "componentType": 5126,
      "count": 576,
      "max": [
        0.678301990032196,
        0.9757220149040222
      ],
      "min": [
        0.35596901178359985,
        0.5491700172424316
      ],
      "type": "VEC2"
    },
    {
      "bufferView": 0,
      "byteOffset": 2256,
      "componentType": 5125,
      "count": 864,
      "type": "SCALAR"
    },
    {
      "bufferView": 2,
      "byteOffset": 21504,
      "componentType": 5126,
      "count": 2983,
      "max": [
        2.769157886505127,
        7.276508808135986,
        0.6339539885520935
      ],
      "min": [
        -2.769157886505127,
        4.288125038146973,
        -0.7940890192985535
      ],
      "type": "VEC3"
    },
    {
      "bufferView": 2,
      "byteOffset": 57300,
      "componentType": 5126,
      "count": 2983,
      "max": [
        0.9999585151672363,
        0.9999046325683594,
        0.999954879283905
      ],
      "min": [
        -0.9989519715309143,
        -0.994550883769989,
        -0.9997768998146057
      ],
      "type": "VEC3"
    },
    {
      "bufferView": 3,
      "byteOffset": 14336,
      "componentType": 5126,
      "count": 2983,
      "max": [
        0.9999982118606567,
        0.8700222969055176,
        0.9995352029800415,
        1.0
      ],
      "min": [
        -0.9999962449073792,
        -0.9987151622772217,
        -0.9999029040336609,
        1.0
      ],
      "type": "VEC4"
    },
    {
      "bufferView": 1,
      "byteOffset": 7168,
      "componentType": 5126,
      "count": 2983,
      "max": [
        0.9859219789505005,
        0.9974589943885803
      ],
      "min": [
        0.009182999841868877,
        0.007060000207275152
      ],
      "type": "VEC2"
    },
    {
      "bufferView": 0,
      "byteOffset": 5712,
      "componentType": 5125,
      "count": 16344,
      "type": "SCALAR"
    }
  ],
  "asset": {
    "extras": {
      "author": "Ryan Maduro (https://sketchfab.com/rmaduro)",
      "license": "CC-BY-4.0 (http://creativecommons.org/licenses/by/4.0/)",
      "source": "https://sketchfab.com/3d-models/adidas-jacket-2f69634f33ee4173beba410a673da22c",
      "title": "Adidas Jacket"
    },
    "generator": "Sketchfab-12.68.0",
    "version": "2.0"
  },
  "bufferViews": [
    {
      "buffer": 0,
      "byteLength": 71088,
      "name": "floatBufferViews",
      "target": 34963
    },
    {
      "buffer": 0,
      "byteLength": 31032,
      "byteOffset": 71088,
      "byteStride": 8,
      "name": "floatBufferViews",
      "target": 34962
    },
    {
      "buffer": 0,
      "byteLength": 93096,
      "byteOffset": 102120,
      "byteStride": 12,
      "name": "floatBufferViews",
      "target": 34962
    },
    {
      "buffer": 0,
      "byteLength": 62064,
      "byteOffset": 195216,
      "byteStride": 16,
      "name": "floatBufferViews",
      "target": 34962
    }
  ],
  "buffers": [
    {
      "byteLength": 257280,
      "uri": "scene.bin"
    }
  ],
  "images": [
    {
      "uri": "textures/Jacket_baseColor.jpeg"
    },
    {
      "uri": "textures/Jacket_metallicRoughness.png"
    },
    {
      "uri": "textures/Jacket_normal.png"
    }
  ],
  "materials": [
    {
      "doubleSided": true,
      "name": "Jacket",
      "normalTexture": {
        "index": 2
      },
      "occlusionTexture": {
        "index": 1
      },
      "pbrMetallicRoughness": {
        "baseColorTexture": {
          "index": 0
        },
        "metallicRoughnessTexture": {
          "index": 1
        }
      }
    }
  ],
  "meshes": [
    {
      "name": "defaultMaterial",
      "primitives": [
        {
          "attributes": {
            "NORMAL": 1,
            "POSITION": 0,
            "TANGENT": 2,
            "TEXCOORD_0": 3
          },
          "indices": 4,
          "material": 0,
          "mode": 4
        }
      ]
    },
    {
      "name": "defaultMaterial",
      "primitives": [
        {
          "attributes": {
            "NORMAL": 6,
            "POSITION": 5,
            "TANGENT": 7,
            "TEXCOORD_0": 8
          },
          "indices": 9,
          "material": 0,
          "mode": 4
        }
      ]
    },
    {
      "name": "defaultMaterial",
      "primitives": [
        {
          "attributes": {
            "NORMAL": 11,
            "POSITION": 10,
            "TANGENT": 12,
            "TEXCOORD_0": 13
          },
          "indices": 14,
          "material": 0,
          "mode": 4
        }
      ]
    }
  ],
  "nodes": [
    {
      "children": [
        1
      ],
      "matrix": [
        1.0,
        0.0,
        0.0,
        0.0,
        0.0,
        2.220446049250313e-16,
        -1.0,
        0.0,
        0.0,
        1.0,
        2.220446049250313e-16,
        0.0,
        0.0,
        0.0,
        0.0,
        1.0
      ],
      "name": "Sketchfab_model"
    },
    {
      "children": [
        2,
        4,
        6
      ],
      "matrix": [
        1.0,
        0.0,
        0.0,
        0.0,
        0.0,
        -4.371139006309477e-08,
        0.999999999999999,
        0.0,
        0.0,
        -0.999999999999999,
        -4.371139006309477e-08,
        0.0,
        0.0,
        0.0,
        0.0,
        1.0
      ],
      "name": "Collada visual scene group"
    },
    {
      "children": [
        3
      ],
      "name": "zipper_slide_low"
    },
    {
      "mesh": 0,
      "name": "defaultMaterial"
    },
    {
      "children": [
        5
      ],
      "name": "zipper_tab_low"
    },
    {
      "mesh": 1,
      "name": "defaultMaterial"
    },
    {
      "children": [
        7
      ],
      "name": "jacket_low"
    },
    {
      "mesh": 2,
      "name": "defaultMaterial"
    }
  ],
  "samplers": [
    {
      "magFilter": 9729,
      "minFilter": 9987,
      "wrapS": 10497,
      "wrapT": 10497
    }
  ],
  "scene": 0,
  "scenes": [
    {
      "name": "Sketchfab_Scene",
      "nodes": [
        0
      ]
    }
  ],
  "textures": [
    {
      "sampler": 0,
      "source": 0
    },
    {
      "sampler": 0,
      "source": 1
    },
    {
      "sampler": 0,
      "source": 2
    }
  ]
}
