<?xml version="1.0" encoding="utf-8"?>
<!-- Generator: Adobe Illustrator 24.2.1, SVG Export Plug-In . SVG Version: 6.00 Build 0)  -->
<svg version="1.1" id="Layer_1" xmlns="http://www.w3.org/2000/svg" xmlns:xlink="http://www.w3.org/1999/xlink" x="0px" y="0px"
	 viewBox="0 0 152 57" style="enable-background:new 0 0 152 57;" xml:space="preserve">
<style type="text/css">
	.st0{fill:#FFFFFF;}
</style>
<g>
	<path class="st0" d="M119.7,38.3c-0.6,0.3-0.9,0.7-1.2,1.3l3.1-0.8C121.2,38.2,120.6,38,119.7,38.3z"/>
	<path class="st0" d="M85.3,23.7c1,0,1.6-0.6,1.6-1.6s-0.6-1.6-1.6-1.6c-1.1,0-1.7,0.6-1.7,1.6C83.6,23.1,84.1,23.7,85.3,23.7z"/>
	<path class="st0" d="M86.8,38.4c-0.5,0-0.8,0.2-1.1,0.5c-0.3,0.4-0.5,0.8-0.5,1.1c0,1,0.5,1.6,1.6,1.6c1,0,1.6-0.6,1.6-1.6
		S87.8,38.4,86.8,38.4z"/>
	<path class="st0" d="M116.7,30V7.9H68v42h70.8V30H116.7z M103.7,16.9h1.6v-3.6h4v3.6h1.5v3.6h-1.5V23c0,0.7,0.3,0.9,0.8,0.9h1.3
		v3.6h-4.2c-0.6,0-0.9-0.2-1.4-0.6c-0.4-0.4-0.6-0.8-0.6-1.3v-5.2h-1.6L103.7,16.9L103.7,16.9z M85.3,16.4c1.5,0,2.8,0.6,3.9,1.6
		c1.1,1.1,1.6,2.5,1.6,4s-0.6,2.8-1.6,4c-1,1.1-2.4,1.7-3.9,1.7s-2.8-0.6-4-1.7c-1.1-1-1.6-2.4-1.6-4c0-1.5,0.6-2.8,1.6-4
		C82.4,17,83.7,16.4,85.3,16.4z M72.6,14.3c0-0.6,0.2-1,0.6-1.4c0.5-0.4,0.9-0.6,1.4-0.6v-0.1h5.8v3.6h-2.9c-0.6,0-0.8,0.3-0.8,0.9
		v1.7h2.1V22h-2.1v5.4h-4L72.6,14.3L72.6,14.3z M80.4,45.6h-5.9c-1.3,0-1.9-0.7-1.9-1.9V30.3h3.9V41c0,0.7,0.3,0.9,0.9,0.9h2.9
		L80.4,45.6L80.4,45.6z M90.7,44c-1,1.1-2.4,1.7-4,1.7c-1.5,0-2.8-0.6-4-1.7c-0.9-1-1.5-2.4-1.5-4c0-1.5,0.6-2.8,1.6-4
		c1.1-1,2.4-1.6,4-1.6c1.5,0,2.8,0.6,4,1.6c1.1,1.1,1.6,2.5,1.6,4C92.4,41.6,91.8,42.9,90.7,44z M91.9,22.1c0-1.5,0.6-2.8,1.6-4
		c1-1,2.4-1.6,4-1.6c1.5,0,2.8,0.6,3.9,1.6c1.1,1.1,1.7,2.5,1.6,4c0,1.5-0.6,2.8-1.6,4c-1,1.1-2.4,1.7-3.9,1.7s-2.8-0.6-4-1.7
		C92.4,24.9,91.9,23.6,91.9,22.1z M99.1,41.7c0.6,0,0.9-0.3,1.3-0.8l3.3,2.2c-1.1,1.7-2.6,2.5-4.6,2.5c-1.5,0-2.8-0.6-4-1.7
		c-1.1-1-1.6-2.4-1.6-4c0-1.5,0.6-2.8,1.6-4c1.1-1,2.4-1.6,4-1.6c2,0,3.5,0.8,4.6,2.5l-3.3,2.2c-0.3-0.5-0.8-0.8-1.3-0.8
		c-1.1,0-1.7,0.6-1.7,1.6C97.4,41.1,97.9,41.7,99.1,41.7z M111.2,45.5l-2.6-3.2v3.2h-4V30.3h4v7.5l2-2.5h4.2l-3.7,4.6l4.6,5.7
		L111.2,45.5L111.2,45.5z M119.6,41.8c0.7,0.3,1.2,0.2,1.8-0.3l0.4-0.5l3.2,2.1l-1.3,1.4c-0.9,0.8-2.1,1.1-3.4,1.1
		c-1.5,0-2.8-0.6-4-1.7c-1.1-1-1.7-2.4-1.7-4c0-1.2,0.4-2.3,1.1-3.3c1.2-1.6,2.8-2.4,4.9-2.3c1.7,0.1,3,0.8,4,2.2
		c0.8,1,1.1,2.1,1.1,3l-7,1.5L119.6,41.8z M130.9,39v6.5h-4v-9c0-1.3,0.7-2,1.9-2l0,0h4.9v3.6h-2.1C131.2,38.1,130.9,38.4,130.9,39z
		 M133.3,45.6c-0.7,0-1-0.3-1-1s0.4-1,1-1c0.8,0,1,0.4,1,1C134.4,45.2,134,45.6,133.3,45.6z"/>
	<path class="st0" d="M133.5,44.1L133.5,44.1h-0.4v0.3h0.4C133.6,44.3,133.6,44.1,133.5,44.1z"/>
	<path class="st0" d="M133.3,43.7c-0.6,0-0.8,0.3-0.8,0.8s0.3,0.8,0.8,0.8c0.6,0,0.8-0.3,0.8-0.8C134.2,44,133.9,43.7,133.3,43.7z
		 M133.8,45h-0.3l-0.3-0.5H133V45h-0.2v-1.1h0.6c0.3,0,0.4,0.1,0.4,0.3s-0.1,0.3-0.4,0.3L133.8,45z"/>
	<path class="st0" d="M99.1,22.1c0-1-0.6-1.6-1.6-1.6c-1.1,0-1.7,0.6-1.7,1.6s0.6,1.6,1.7,1.6C98.5,23.7,99.1,23.1,99.1,22.1z"/>
</g>
<path class="st0" d="M41.8,27c-0.3,0.6-0.8,1.3-1.2,1.8H4.8c-0.3-0.4-0.9-1.2-1.2-1.8H41.8z M39.2,30.6c-0.4,0.6-1.1,1.2-1.8,1.6H8
	c-0.6-0.4-1.2-1-1.7-1.6H39.2z M35.1,33.9c-3.2,2.4-6.7,3.6-9.3,3.8c0-1,0-2.3,0.3-3.8H35.1z M45.2,15.2c0.3,2.9-0.7,6.5-2.5,10.1
	H29.5c0.5-0.9,1.1-1.7,1.8-2.5C35.2,18.2,41.1,15.4,45.2,15.2z M19.6,37.7c-2.5-0.2-6-1.4-9.2-3.8h9.1
	C19.6,35.4,19.6,36.7,19.6,37.7z M22.7,38c-1-1-1.9-2.3-2.8-4.1h5.7C24.6,35.7,23.7,37,22.7,38z M16,25.3H2.7
	C0.9,21.7,0,18.1,0.3,15.2c4.1,0.3,10,3.1,13.9,7.6C14.8,23.6,15.5,24.4,16,25.3z M28.4,25.3H17c-0.2-1-0.2-2-0.2-3.2
	c0-6.3,2.8-12.9,5.9-15.8c3.1,2.9,5.9,9.5,5.9,15.8C28.6,23.2,28.5,24.2,28.4,25.3z"/>
<path class="st0" d="M41.8,50.7c1.9,0,3.4-0.8,3.4-2.7c0-1.1-0.8-1.8-2-2.1c-1.3-0.3-2.8-0.3-2.8-1.1c0.1-0.5,0.6-0.7,1.3-0.7
	c1.2,0,1.2,0.6,1.3,1h1.9c-0.1-1.5-1.3-2.5-3.3-2.5s-3.2,1.1-3.2,2.5c0,0.8,0.4,1.5,1.1,1.9c0.5,0.2,1.2,0.4,2,0.6
	c0.8,0.1,1.6,0.2,1.6,0.8c0,0.4-0.4,0.9-1.3,0.9c-1.3,0-1.6-0.7-1.6-1.2h-2C38.3,49.6,39.6,50.7,41.8,50.7z"/>
<path class="st0" d="M33.4,50.7c0.9,0,1.6-0.3,2.2-0.7v0.5h1.9v-7.8h-1.9v0.6c-0.6-0.5-1.4-0.7-2.2-0.7c-2.2,0-4,1.8-4,4
	C29.4,48.9,31.2,50.7,33.4,50.7z M31.3,46.7c0-1.2,1-2.3,2.2-2.3s2.1,1,2.1,2.3c0,1.2-1,2.2-2.1,2.2C32.3,48.9,31.3,47.9,31.3,46.7z
	"/>
<path class="st0" d="M26.9,40.1v3.2c-0.7-0.5-1.4-0.7-2.3-0.7c-2.2,0-4,1.8-4,4s1.8,4,4,4c0.8,0,1.6-0.3,2.3-0.7v0.5h1.9V40.1H26.9
	L26.9,40.1z M22.5,46.7c0-1.2,1-2.3,2.2-2.3s2.2,1,2.2,2.3c0,1.2-1,2.2-2.2,2.2S22.5,47.9,22.5,46.7z"/>
<path class="st0" d="M18,50.5h1.9v-7.8H18V50.5z M18,42.1h1.9v-1.9H18V42.1z"/>
<path class="st0" d="M12.8,50.7c0.8,0,1.6-0.3,2.3-0.7v0.5H17V40.1h-1.9v3.2c-0.7-0.5-1.4-0.7-2.3-0.7c-2.2,0-4,1.8-4,4
	C8.8,48.9,10.6,50.7,12.8,50.7z M10.6,46.7c0-1.2,1-2.3,2.3-2.3c1.2,0,2.2,1,2.2,2.3c0,1.2-1,2.2-2.2,2.2
	C11.6,48.9,10.6,47.9,10.6,46.7z"/>
<path class="st0" d="M4,50.7c0.9,0,1.6-0.3,2.3-0.7v0.5h1.9v-7.8H6.3v0.6c-0.7-0.5-1.5-0.7-2.3-0.7c-2.2,0-4,1.8-4,4
	C0,48.9,1.8,50.7,4,50.7z M1.8,46.7c0-1.2,1-2.3,2.2-2.3c1.3,0,2.3,1,2.3,2.3c0,1.2-1,2.2-2.3,2.2C2.8,48.9,1.8,47.9,1.8,46.7z"/>
</svg>
