{
  "accessors": [
    {
      "bufferView": 2,
      "componentType": 5126,
      "count": 4361,
      "max": [
        4.110619068145752,
        1.8599530458450317,
        12.910173416137695
      ],
      "min": [
        -4.0863800048828125,
        -1.5399889945983887,
        6.02837610244751
      ],
      "type": "VEC3"
    },
    {
      "bufferView": 2,
      "byteOffset": 52332,
      "componentType": 5126,
      "count": 4361,
      "max": [
        0.9983008503913879,
        0.9999003410339355,
        0.9994961619377136
      ],
      "min": [
        -0.9994385242462158,
        -0.999984622001648,
        -0.9991009831428528
      ],
      "type": "VEC3"
    },
    {
      "bufferView": 3,
      "componentType": 5126,
      "count": 4361,
      "max": [
        0.9999890327453613,
        0.9995565414428711,
        0.9997057318687439,
        1.0
      ],
      "min": [
        -0.9999997019767761,
        -0.9997606873512268,
        -0.9996700882911682,
        -1.0
      ],
      "type": "VEC4"
    },
    {
      "bufferView": 1,
      "componentType": 5126,
      "count": 4361,
      "max": [
        0.9969559907913208,
        1.0
      ],
      "min": [
        0.00017899999511428177,
        0.0023759999312460423
      ],
      "type": "VEC2"
    },
    {
      "bufferView": 0,
      "componentType": 5125,
      "count": 18717,
      "type": "SCALAR"
    },
    {
      "bufferView": 2,
      "byteOffset": 104664,
      "componentType": 5126,
      "count": 3918,
      "max": [
        1.4745169878005981,
        1.127782940864563,
        14.387260437011719
      ],
      "min": [
        -1.474392056465149,
        -1.0003379583358765,
        8.072720527648926
      ],
      "type": "VEC3"
    },
    {
      "bufferView": 2,
      "byteOffset": 151680,
      "componentType": 5126,
      "count": 3918,
      "max": [
        0.999222993850708,
        0.999789297580719,
        0.999916672706604
      ],
      "min": [
        -0.9991827011108398,
        -1.0,
        -0.9999874830245972
      ],
      "type": "VEC3"
    },
    {
      "bufferView": 1,
      "byteOffset": 34888,
      "componentType": 5126,
      "count": 3918,
      "max": [
        0.9966030120849609,
        0.9999709725379944
      ],
      "min": [
        0.0012629999546334147,
        0.005735999904572964
      ],
      "type": "VEC2"
    },
    {
      "bufferView": 0,
      "byteOffset": 74868,
      "componentType": 5125,
      "count": 22068,
      "type": "SCALAR"
    }
  ],
  "asset": {
    "extras": {
      "author": "Liam Moffitt (https://sketchfab.com/divadan)",
      "license": "CC-BY-4.0 (http://creativecommons.org/licenses/by/4.0/)",
      "source": "https://sketchfab.com/3d-models/corrupted-jacket-4ea243b23ba54884be1612641f20d6f8",
      "title": "Corrupted Jacket"
    },
    "generator": "Sketchfab-12.66.0",
    "version": "2.0"
  },
  "bufferViews": [
    {
      "buffer": 0,
      "byteLength": 163140,
      "name": "floatBufferViews",
      "target": 34963
    },
    {
      "buffer": 0,
      "byteLength": 66232,
      "byteOffset": 163140,
      "byteStride": 8,
      "name": "floatBufferViews",
      "target": 34962
    },
    {
      "buffer": 0,
      "byteLength": 198696,
      "byteOffset": 229372,
      "byteStride": 12,
      "name": "floatBufferViews",
      "target": 34962
    },
    {
      "buffer": 0,
      "byteLength": 69776,
      "byteOffset": 428068,
      "byteStride": 16,
      "name": "floatBufferViews",
      "target": 34962
    }
  ],
  "buffers": [
    {
      "byteLength": 497844,
      "uri": "scene.bin"
    }
  ],
  "extensionsRequired": [
    "KHR_materials_pbrSpecularGlossiness"
  ],
  "extensionsUsed": [
    "KHR_materials_pbrSpecularGlossiness"
  ],
  "images": [
    {
      "uri": "textures/Jacket_diffuse.png"
    },
    {
      "uri": "textures/Jacket_specularGlossiness.png"
    },
    {
      "uri": "textures/Jacket_normal.png"
    },
    {
      "uri": "textures/Jacket_occlusion.png"
    }
  ],
  "materials": [
    {
      "doubleSided": true,
      "extensions": {
        "KHR_materials_pbrSpecularGlossiness": {
          "diffuseFactor": [
            1.0,
            1.0,
            1.0,
            1.0
          ],
          "diffuseTexture": {
            "index": 0
          },
          "glossinessFactor": 0.6827441086600065,
          "specularFactor": [
            1.0,
            1.0,
            1.0
          ],
          "specularGlossinessTexture": {
            "index": 1
          }
        }
      },
      "name": "Jacket",
      "normalTexture": {
        "index": 2
      },
      "occlusionTexture": {
        "index": 3
      }
    },
    {
      "doubleSided": true,
      "extensions": {
        "KHR_materials_pbrSpecularGlossiness": {
          "diffuseFactor": [
            0.0,
            0.0,
            0.0,
            1.0
          ],
          "glossinessFactor": 0.275,
          "specularFactor": [
            0.01,
            0.01,
            0.01
          ]
        }
      },
      "name": "body"
    }
  ],
  "meshes": [
    {
      "name": "Object_0",
      "primitives": [
        {
          "attributes": {
            "NORMAL": 1,
            "POSITION": 0,
            "TANGENT": 2,
            "TEXCOORD_0": 3
          },
          "indices": 4,
          "material": 0,
          "mode": 4
        }
      ]
    },
    {
      "name": "Object_1",
      "primitives": [
        {
          "attributes": {
            "NORMAL": 6,
            "POSITION": 5,
            "TEXCOORD_0": 7
          },
          "indices": 8,
          "material": 1,
          "mode": 4
        }
      ]
    }
  ],
  "nodes": [
    {
      "children": [
        1
      ],
      "matrix": [
        1.0,
        0.0,
        0.0,
        0.0,
        0.0,
        2.220446049250313e-16,
        -1.0,
        0.0,
        0.0,
        1.0,
        2.220446049250313e-16,
        0.0,
        0.0,
        0.0,
        0.0,
        1.0
      ],
      "name": "Sketchfab_model"
    },
    {
      "children": [
        2,
        3
      ],
      "name": "jacket_sketchfab.obj.cleaner.materialmerger.gles"
    },
    {
      "mesh": 0,
      "name": "Object_2"
    },
    {
      "mesh": 1,
      "name": "Object_3"
    }
  ],
  "samplers": [
    {
      "magFilter": 9729,
      "minFilter": 9987,
      "wrapS": 10497,
      "wrapT": 10497
    }
  ],
  "scene": 0,
  "scenes": [
    {
      "name": "Sketchfab_Scene",
      "nodes": [
        0
      ]
    }
  ],
  "textures": [
    {
      "sampler": 0,
      "source": 0
    },
    {
      "sampler": 0,
      "source": 1
    },
    {
      "sampler": 0,
      "source": 2
    },
    {
      "sampler": 0,
      "source": 3
    }
  ]
}
