{
  "accessors": [
    {
      "bufferView": 2,
      "componentType": 5126,
      "count": 296,
      "max": [
        0.004866459872573614,
        0.03100680001080036,
        0.22783100605010986
      ],
      "min": [
        -0.014909399673342705,
        0.0017214500112459064,
        0.21250799298286438
      ],
      "type": "VEC3"
    },
    {
      "bufferView": 2,
      "byteOffset": 3552,
      "componentType": 5126,
      "count": 296,
      "max": [
        0.997837245464325,
        0.9956780076026917,
        0.9908732175827026
      ],
      "min": [
        -0.9989434480667114,
        -0.9930731058120728,
        -0.9824458956718445
      ],
      "type": "VEC3"
    },
    {
      "bufferView": 3,
      "componentType": 5126,
      "count": 296,
      "max": [
        0.9999947547912598,
        0.7215927243232727,
        0.9948160648345947,
        1.0
      ],
      "min": [
        -0.2145509570837021,
        -0.5941709280014038,
        -0.998150646686554,
        1.0
      ],
      "type": "VEC4"
    },
    {
      "bufferView": 1,
      "componentType": 5126,
      "count": 296,
      "max": [
        0.9882349967956543,
        0.9159809947013855
      ],
      "min": [
        0.38003599643707275,
        0.5821710228919983
      ],
      "type": "VEC2"
    },
    {
      "bufferView": 0,
      "componentType": 5125,
      "count": 498,
      "type": "SCALAR"
    },
    {
      "bufferView": 2,
      "byteOffset": 7104,
      "componentType": 5126,
      "count": 696,
      "max": [
        0.005804949905723333,
        0.02134080044925213,
        0.22892099618911743
      ],
      "min": [
        -0.01125510036945343,
        -0.01968180015683174,
        0.22006799280643463
      ],
      "type": "VEC3"
    },
    {
      "bufferView": 2,
      "byteOffset": 15456,
      "componentType": 5126,
      "count": 696,
      "max": [
        0.9946200251579285,
        0.9956125020980835,
        0.9906834959983826
      ],
      "min": [
        -0.9983026385307312,
        -0.9914155006408691,
        -0.985568642616272
      ],
      "type": "VEC3"
    },
    {
      "bufferView": 3,
      "byteOffset": 4736,
      "componentType": 5126,
      "count": 696,
      "max": [
        0.9990513920783997,
        0.7669760584831238,
        0.9984083771705627,
        1.0
      ],
      "min": [
        -0.4041465222835541,
        -0.7619043588638306,
        -0.9936112761497498,
        -1.0
      ],
      "type": "VEC4"
    },
    {
      "bufferView": 1,
      "byteOffset": 2368,
      "componentType": 5126,
      "count": 696,
      "max": [
        0.9885450005531311,
        0.9134929776191711
      ],
      "min": [
        0.8395169973373413,
        0.510837972164154
      ],
      "type": "VEC2"
    },
    {
      "bufferView": 0,
      "byteOffset": 1992,
      "componentType": 5125,
      "count": 1044,
      "type": "SCALAR"
    },
    {
      "bufferView": 2,
      "byteOffset": 23808,
      "componentType": 5126,
      "count": 80,
      "max": [
        0.14986300468444824,
        0.43394801020622253,
        0.21859100461006165
      ],
      "min": [
        -0.007888689637184143,
        0.03076609969139099,
        0.15737000107765198
      ],
      "type": "VEC3"
    },
    {
      "bufferView": 2,
      "byteOffset": 24768,
      "componentType": 5126,
      "count": 80,
      "max": [
        0.9886634945869446,
        0.5568539500236511,
        0.9931511282920837
      ],
      "min": [
        -0.9283487796783447,
        -0.4460110664367676,
        -0.9830533862113953
      ],
      "type": "VEC3"
    },
    {
      "bufferView": 3,
      "byteOffset": 15872,
      "componentType": 5126,
      "count": 80,
      "max": [
        0.9891365766525269,
        0.9951212406158447,
        0.9950882196426392,
        1.0
      ],
      "min": [
        -0.9892002940177917,
        -0.9966284036636353,
        -0.9975462555885315,
        1.0
      ],
      "type": "VEC4"
    },
    {
      "bufferView": 1,
      "byteOffset": 7936,
      "componentType": 5126,
      "count": 80,
      "max": [
        0.8925309777259827,
        0.6819739937782288
      ],
      "min": [
        0.8561429977416992,
        0.010396200232207775
      ],
      "type": "VEC2"
    },
    {
      "bufferView": 0,
      "byteOffset": 6168,
      "componentType": 5125,
      "count": 336,
      "type": "SCALAR"
    },
    {
      "bufferView": 2,
      "byteOffset": 25728,
      "componentType": 5126,
      "count": 3115,
      "max": [
        1.0,
        0.5418059825897217,
        0.2551810145378113
      ],
      "min": [
        -1.0,
        -0.5418059825897217,
        -0.2551810145378113
      ],
      "type": "VEC3"
    },
    {
      "bufferView": 2,
      "byteOffset": 63108,
      "componentType": 5126,
      "count": 3115,
      "max": [
        0.9995923638343811,
        0.957776665687561,
        0.9999753832817078
      ],
      "min": [
        -0.9995918869972229,
        -0.9815065860748291,
        -0.9998067617416382
      ],
      "type": "VEC3"
    },
    {
      "bufferView": 3,
      "byteOffset": 17152,
      "componentType": 5126,
      "count": 3115,
      "max": [
        0.9999980330467224,
        0.9350388646125793,
        0.9995483160018921,
        1.0
      ],
      "min": [
        -0.999998927116394,
        -0.9568009376525879,
        -0.997964084148407,
        -1.0
      ],
      "type": "VEC4"
    },
    {
      "bufferView": 1,
      "byteOffset": 8576,
      "componentType": 5126,
      "count": 3115,
      "max": [
        0.942812979221344,
        0.9956700205802917
      ],
      "min": [
        0.0028865300118923187,
        0.0
      ],
      "type": "VEC2"
    },
    {
      "bufferView": 0,
      "byteOffset": 7512,
      "componentType": 5125,
      "count": 17004,
      "type": "SCALAR"
    }
  ],
  "asset": {
    "extras": {
      "author": "Jhuffman (https://sketchfab.com/Jhuffman)",
      "license": "CC-BY-4.0 (http://creativecommons.org/licenses/by/4.0/)",
      "source": "https://sketchfab.com/3d-models/tommy-hilfiger-jacket-6f97ec6e83b04fdfb973820d725dd2aa",
      "title": "Tommy Hilfiger Jacket"
    },
    "generator": "Sketchfab-12.65.0",
    "version": "2.0"
  },
  "bufferViews": [
    {
      "buffer": 0,
      "byteLength": 75528,
      "name": "floatBufferViews",
      "target": 34963
    },
    {
      "buffer": 0,
      "byteLength": 33496,
      "byteOffset": 75528,
      "byteStride": 8,
      "name": "floatBufferViews",
      "target": 34962
    },
    {
      "buffer": 0,
      "byteLength": 100488,
      "byteOffset": 109024,
      "byteStride": 12,
      "name": "floatBufferViews",
      "target": 34962
    },
    {
      "buffer": 0,
      "byteLength": 66992,
      "byteOffset": 209512,
      "byteStride": 16,
      "name": "floatBufferViews",
      "target": 34962
    }
  ],
  "buffers": [
    {
      "byteLength": 276504,
      "uri": "scene.bin"
    }
  ],
  "images": [
    {
      "uri": "textures/Jacket_baseColor.jpeg"
    },
    {
      "uri": "textures/Jacket_metallicRoughness.png"
    },
    {
      "uri": "textures/Jacket_normal.png"
    }
  ],
  "materials": [
    {
      "doubleSided": true,
      "name": "Jacket",
      "normalTexture": {
        "index": 2
      },
      "occlusionTexture": {
        "index": 1
      },
      "pbrMetallicRoughness": {
        "baseColorTexture": {
          "index": 0
        },
        "metallicRoughnessTexture": {
          "index": 1
        }
      }
    }
  ],
  "meshes": [
    {
      "name": "defaultMaterial",
      "primitives": [
        {
          "attributes": {
            "NORMAL": 1,
            "POSITION": 0,
            "TANGENT": 2,
            "TEXCOORD_0": 3
          },
          "indices": 4,
          "material": 0,
          "mode": 4
        }
      ]
    },
    {
      "name": "defaultMaterial",
      "primitives": [
        {
          "attributes": {
            "NORMAL": 6,
            "POSITION": 5,
            "TANGENT": 7,
            "TEXCOORD_0": 8
          },
          "indices": 9,
          "material": 0,
          "mode": 4
        }
      ]
    },
    {
      "name": "defaultMaterial",
      "primitives": [
        {
          "attributes": {
            "NORMAL": 11,
            "POSITION": 10,
            "TANGENT": 12,
            "TEXCOORD_0": 13
          },
          "indices": 14,
          "material": 0,
          "mode": 4
        }
      ]
    },
    {
      "name": "defaultMaterial",
      "primitives": [
        {
          "attributes": {
            "NORMAL": 16,
            "POSITION": 15,
            "TANGENT": 17,
            "TEXCOORD_0": 18
          },
          "indices": 19,
          "material": 0,
          "mode": 4
        }
      ]
    }
  ],
  "nodes": [
    {
      "children": [
        1
      ],
      "matrix": [
        1.0,
        0.0,
        0.0,
        0.0,
        0.0,
        2.220446049250313e-16,
        -1.0,
        0.0,
        0.0,
        1.0,
        2.220446049250313e-16,
        0.0,
        0.0,
        -5.784306367218048e-09,
        -1.2002359994767177e-08,
        1.0
      ],
      "name": "Sketchfab_model"
    },
    {
      "children": [
        2,
        4,
        6,
        8
      ],
      "matrix": [
        1.0,
        0.0,
        0.0,
        0.0,
        0.0,
        -4.371139006309477e-08,
        0.999999999999999,
        0.0,
        0.0,
        -0.999999999999999,
        -4.371139006309477e-08,
        0.0,
        0.0,
        0.0,
        0.0,
        1.0
      ],
      "name": "Collada visual scene group"
    },
    {
      "children": [
        3
      ],
      "name": "zipper_slide_low"
    },
    {
      "mesh": 0,
      "name": "defaultMaterial"
    },
    {
      "children": [
        5
      ],
      "name": "zipper_tab_low"
    },
    {
      "mesh": 1,
      "name": "defaultMaterial"
    },
    {
      "children": [
        7
      ],
      "name": "zipper_teeth_low"
    },
    {
      "mesh": 2,
      "name": "defaultMaterial"
    },
    {
      "children": [
        9
      ],
      "name": "jacket_low"
    },
    {
      "mesh": 3,
      "name": "defaultMaterial"
    }
  ],
  "samplers": [
    {
      "magFilter": 9729,
      "minFilter": 9987,
      "wrapS": 10497,
      "wrapT": 10497
    }
  ],
  "scene": 0,
  "scenes": [
    {
      "name": "Sketchfab_Scene",
      "nodes": [
        0
      ]
    }
  ],
  "textures": [
    {
      "sampler": 0,
      "source": 0
    },
    {
      "sampler": 0,
      "source": 1
    },
    {
      "sampler": 0,
      "source": 2
    }
  ]
}
